<?xml version="1.0" standalone="no"?>
<!DOCTYPE svg PUBLIC "-//W3C//DTD SVG 20010904//EN"
 "http://www.w3.org/TR/2001/REC-SVG-20010904/DTD/svg10.dtd">
<svg version="1.0" xmlns="http://www.w3.org/2000/svg"
 width="500.000000pt" height="500.000000pt" viewBox="0 0 500.000000 500.000000"
 preserveAspectRatio="xMidYMid meet">
<metadata>
Created by potrace 1.14, written by Peter Selinger 2001-2017
</metadata>
<g transform="translate(0.000000,500.000000) scale(0.100000,-0.100000)"
fill="#000000" stroke="none">
<path d="M1770 2505 l0 -885 120 0 120 0 0 308 0 308 136 134 c74 73 139 129
143 124 5 -5 29 -38 55 -74 25 -36 54 -76 63 -89 36 -48 113 -158 159 -226 26
-38 51 -72 54 -75 3 -3 17 -21 30 -40 13 -19 27 -37 31 -40 3 -3 8 -10 10 -15
2 -6 53 -79 113 -163 l110 -152 148 0 c81 0 148 2 148 5 0 5 -137 193 -167
230 -4 6 -21 28 -38 50 -16 22 -33 45 -38 50 -4 6 -44 60 -88 120 -44 61 -85
117 -92 125 -7 8 -64 85 -127 170 -63 85 -118 157 -122 158 -4 2 -8 8 -8 13 0
5 -8 18 -17 30 -10 11 -28 33 -40 47 -13 15 -23 32 -23 38 0 10 40 50 480 483
l255 251 -154 0 -154 0 -234 -237 c-128 -131 -323 -329 -433 -441 l-200 -203
0 440 0 441 -120 0 -120 0 0 -885z"/>
</g>
</svg>
